<svg xmlns="http://www.w3.org/2000/svg" width="17" height="16.999" viewBox="0 0 17 16.999"><g transform="translate(0 -0.004)"><g transform="translate(0 1.218)"><path d="M13.964,41.423a.607.607,0,0,0-.607.607V48.1a.607.607,0,0,1-.607.607H1.821a.607.607,0,0,1-.607-.607V35.958a.607.607,0,0,1,.607-.607H9.107a.607.607,0,1,0,0-1.214H1.821A1.821,1.821,0,0,0,0,35.958V48.1a1.821,1.821,0,0,0,1.821,1.821H12.75A1.821,1.821,0,0,0,14.571,48.1V42.03A.607.607,0,0,0,13.964,41.423Z" transform="translate(0 -34.137)" fill="#d1d8de"/></g><g transform="translate(3.643 0.004)"><g transform="translate(0 0)"><path d="M115.085.685a2.324,2.324,0,0,0-3.287,0l-8,8a.614.614,0,0,0-.146.237l-1.214,3.643a.607.607,0,0,0,.576.8.617.617,0,0,0,.192-.031l3.643-1.214a.607.607,0,0,0,.237-.147l8-8A2.324,2.324,0,0,0,115.085.685Z" transform="translate(-102.409 -0.004)" fill="#d1d8de"/></g></g></g></svg>