<svg xmlns="http://www.w3.org/2000/svg" width="24.701" height="22.231"><path id="App_Store" d="M0 35.127v-3.352a.561.561 0 01.561-.558h5.923l-2.579 4.469H.561A.561.561 0 010 35.127zm4.219 6.863l-1.89 1.281c-.254.173-.434.063-.4-.242l.252-2.191a.343.343 0 01.55-.277L4.2 41.4a.323.323 0 01.019.59zm.454-1.235l-1.463-.836a.556.556 0 01-.21-.761l6.778-11.743a.564.564 0 01.767-.206l1.463.834a.56.56 0 01.206.763L5.441 40.55a.566.566 0 01-.768.205zm5.155-5.07l2.579-4.469h1.485l2.094 4.469zm8.4 1.334c-.586-.292-3.5-6.992-4.249-8.74s-3.007-6.4-2.276-6.763c.52-.26 2.386 3.4 3.785 5.6s4.318 7.872 4.677 8.517-.344 1.187-.734 1.349a1.129 1.129 0 01-1.204.037zm1.916 3.081l-.881-1.386a.548.548 0 01.208-.8l.84-.43a.62.62 0 01.824.273l.7 1.331a.657.657 0 01-.235.858l-.6.358a.633.633 0 01-.856-.204zm3.243 3.635c-.184-.587-1.59-.626-2.219-1.51a1.009 1.009 0 01.11-1.545c2.552-1.432 2.109 3.054 2.109 3.054zm1.313-8.608a.561.561 0 01-.561.559h-2.964a1.681 1.681 0 00-.175-.507 76.392 76.392 0 01-.544-1.025 399.21 399.21 0 00-1.559-2.937h5.243a.561.561 0 01.561.558v3.352z" transform="translate(0 -21.503)"/></svg>