<svg xmlns="http://www.w3.org/2000/svg" width="14" height="15.195" viewBox="0 0 14 15.195"><g transform="translate(-20.14)"><g transform="translate(28.611 10.492)"><path d="M308.254,353.572a1.985,1.985,0,0,0-.436-.048,2.314,2.314,0,0,0-2.184,1.881,2.272,2.272,0,0,0,1.6,2.775,1.992,1.992,0,0,0,.435.048,2.313,2.313,0,0,0,2.184-1.881A2.272,2.272,0,0,0,308.254,353.572Z" transform="translate(-305.574 -353.524)" fill="#fff"/></g><g transform="translate(21.556)"><g transform="translate(0)"><path d="M78.54,2.876a1.966,1.966,0,0,0,.192-.305,1.763,1.763,0,0,0-.683-2.4A1.582,1.582,0,0,0,77.335,0a1.851,1.851,0,0,0-1.562.922,7.654,7.654,0,0,0-4.724.034A1.854,1.854,0,0,0,69.466,0a1.578,1.578,0,0,0-.714.169,1.764,1.764,0,0,0-.683,2.4,1.986,1.986,0,0,0,.263.391,3.069,3.069,0,0,0-.477,1.62c0,2.218,2.511,4.016,5.608,4.016s5.608-1.8,5.608-4.016A3.089,3.089,0,0,0,78.54,2.876ZM70.931,3.8a.543.543,0,1,1,.543.543A.542.542,0,0,1,70.931,3.8Zm2.533,3.618c-1.1,0-1.99-.648-1.99-1.447a1.516,1.516,0,0,1,1.194-1.326.894.894,0,0,0-.109.421.9.9,0,1,0,1.809,0,.892.892,0,0,0-.109-.421A1.516,1.516,0,0,1,75.453,5.97C75.453,6.769,74.562,7.417,73.463,7.417Zm1.99-3.075A.543.543,0,1,1,76,3.8.543.543,0,0,1,75.453,4.342Z" transform="translate(-67.855)" fill="#fff"/></g></g><g transform="translate(21.375 10.492)"><g transform="translate(0)"><path d="M66.043,355.406a2.314,2.314,0,0,0-2.184-1.881,1.983,1.983,0,0,0-.436.048,2.272,2.272,0,0,0-1.6,2.774,2.313,2.313,0,0,0,2.184,1.881,1.992,1.992,0,0,0,.435-.048A2.273,2.273,0,0,0,66.043,355.406Z" transform="translate(-61.763 -353.525)" fill="#fff"/></g></g><g transform="translate(20.14 7.717)"><g transform="translate(0)"><path d="M33.476,260.886l-1.3-.856a5.864,5.864,0,0,1-.523.422,8.171,8.171,0,0,1-8.984,0,5.894,5.894,0,0,1-.543-.441l-1.325.874a1.422,1.422,0,0,0-.444,1.954,1.332,1.332,0,0,0,.591.49,2.966,2.966,0,0,1,1.888-1.378,2.917,2.917,0,0,1,.633-.07,3.229,3.229,0,0,1,3.067,2.59,3.4,3.4,0,0,1-.114,1.88,5.249,5.249,0,0,0,1.478,0,3.4,3.4,0,0,1-.114-1.88,3.229,3.229,0,0,1,3.067-2.59h0a2.911,2.911,0,0,1,.632.07,2.964,2.964,0,0,1,1.878,1.361,1.329,1.329,0,0,0,.554-.473A1.422,1.422,0,0,0,33.476,260.886Z" transform="translate(-20.14 -260.012)" fill="#fff"/></g></g></g></svg>