<svg id="bell" xmlns="http://www.w3.org/2000/svg" width="22" height="24"><path id="Path_16642" data-name="Path 16642" d="M359.18 26.127a1 1 0 01-1-1 10.434 10.434 0 00-3.08-7.427 1 1 0 011.414-1.414 12.418 12.418 0 013.661 8.839 1 1 0 01-.995 1.002zm0 0" transform="translate(-338.18 -15.245)" fill="#333"/><path id="Path_16643" data-name="Path 16643" d="M1 26.127a1 1 0 01-1-1 12.418 12.418 0 013.661-8.839A1 1 0 115.075 17.7 10.432 10.432 0 002 25.127a1 1 0 01-1 1zm0 0" transform="translate(0 -15.245)" fill="#333"/><path id="Path_16644" data-name="Path 16644" d="M40.711 16.913a6.7 6.7 0 01-2.379-5.125V9a7.006 7.006 0 00-6-6.92V1a1 1 0 00-2 0v1.08a7 7 0 00-6 6.92v2.788a6.706 6.706 0 01-2.388 5.133A1.75 1.75 0 0023.082 20h16.5a1.75 1.75 0 001.129-3.087zm0 0" transform="translate(-20.332)" fill="#333"/><path id="Path_16645" data-name="Path 16645" d="M159.963 451a3.756 3.756 0 003.674-3h-7.348a3.756 3.756 0 003.674 3zm0 0" transform="translate(-148.963 -427)" fill="#333"/></svg>