<svg id="bell" xmlns="http://www.w3.org/2000/svg" width="22" height="24" viewBox="0 0 22 24">
  <path id="Path_16642" data-name="Path 16642" d="M359.18,26.127a1,1,0,0,1-1-1A10.434,10.434,0,0,0,355.1,17.7a1,1,0,0,1,1.414-1.414,12.418,12.418,0,0,1,3.661,8.839A1,1,0,0,1,359.18,26.127Zm0,0" transform="translate(-338.18 -15.245)" fill="#333"/>
  <path id="Path_16643" data-name="Path 16643" d="M1,26.127a1,1,0,0,1-1-1,12.418,12.418,0,0,1,3.661-8.839A1,1,0,1,1,5.075,17.7,10.432,10.432,0,0,0,2,25.127,1,1,0,0,1,1,26.127Zm0,0" transform="translate(0 -15.245)" fill="#333"/>
  <path id="Path_16644" data-name="Path 16644" d="M40.711,16.913a6.7,6.7,0,0,1-2.379-5.125V9a7.006,7.006,0,0,0-6-6.92V1a1,1,0,0,0-2,0V2.08a7,7,0,0,0-6,6.92v2.788a6.706,6.706,0,0,1-2.388,5.133A1.75,1.75,0,0,0,23.082,20h16.5a1.75,1.75,0,0,0,1.129-3.087Zm0,0" transform="translate(-20.332)" fill="#333"/>
  <path id="Path_16645" data-name="Path 16645" d="M159.963,451a3.756,3.756,0,0,0,3.674-3h-7.348A3.756,3.756,0,0,0,159.963,451Zm0,0" transform="translate(-148.963 -427)" fill="#333"/>
</svg>
