<svg xmlns="http://www.w3.org/2000/svg" width="22" height="23" viewBox="0 0 22 23"><g><g><g><path fill="#282a2d" d="M3.347 17.413h-.953A2.397 2.397 0 0 0 0 19.808v1.743c0 .36.291.651.651.651H3.46a1.94 1.94 0 0 1-.112-.65z"/></g><g><path fill="#282a2d" d="M7.94 13.926h-.952a2.397 2.397 0 0 0-2.394 2.395v5.23c0 .36.291.651.65.651h2.809a1.945 1.945 0 0 1-.112-.65z"/></g><g><path fill="#282a2d" d="M21.872 6.676L17.223.463a.654.654 0 0 0-1.046 0l-4.65 6.213a.64.64 0 0 0-.058.674c.111.217.336.355.582.355h1.673v13.853c0 .356.292.644.651.644h4.65c.359 0 .65-.288.65-.644V7.705h1.674c.246 0 .47-.138.581-.355a.639.639 0 0 0-.058-.674z"/></g><g><path fill="#282a2d" d="M12.535 10.44h-.953a2.397 2.397 0 0 0-2.394 2.394v8.717c0 .36.291.651.65.651h2.808a1.945 1.945 0 0 1-.111-.65z"/></g></g></g></svg>
