<svg xmlns="http://www.w3.org/2000/svg" width="22" height="23"><path fill="#282a2d" d="M3.347 17.413h-.953A2.397 2.397 0 000 19.808v1.743c0 .36.291.651.651.651H3.46a1.94 1.94 0 01-.112-.65zm4.593-3.487h-.952a2.397 2.397 0 00-2.394 2.395v5.23c0 .36.291.651.65.651h2.809a1.945 1.945 0 01-.112-.65zm13.932-7.25L17.223.463a.654.654 0 00-1.046 0l-4.65 6.213a.64.64 0 00-.058.674.654.654 0 00.582.355h1.673v13.853c0 .356.292.644.651.644h4.65c.359 0 .65-.288.65-.644V7.705h1.674c.246 0 .47-.138.581-.355a.639.639 0 00-.058-.674z"/><path fill="#282a2d" d="M12.535 10.44h-.953a2.397 2.397 0 00-2.394 2.394v8.717c0 .36.291.651.65.651h2.808a1.945 1.945 0 01-.111-.65z"/></svg>