<svg id="book" xmlns="http://www.w3.org/2000/svg" width="18.372" height="15.33"><g id="Group_20436" data-name="Group 20436" transform="translate(9.732)"><g id="Group_20435" data-name="Group 20435"><path id="Path_16634" data-name="Path 16634" d="M279.486 43.124a14.844 14.844 0 00-4.5-.728 15.05 15.05 0 00-3.774.509v11.163a15.01 15.01 0 013.774-.508 14.74 14.74 0 014.5.728l.021.008.34.138v-10.8a.545.545 0 00-.361-.51zm-2.2 8.776a.546.546 0 01-.514.361.539.539 0 01-.184-.032 4.748 4.748 0 00-3.042-.051l-.179.057a.546.546 0 11-.334-1.039l.179-.058a5.848 5.848 0 013.745.064.546.546 0 01.326.698zm0-2.983a.546.546 0 01-.7.329 4.748 4.748 0 00-3.042-.052l-.179.057a.546.546 0 11-.334-1.039l.179-.057a5.845 5.845 0 013.745.063.546.546 0 01.328.699zm0-2.983a.545.545 0 01-.7.329 4.748 4.748 0 00-3.042-.052l-.179.057a.546.546 0 01-.334-1.039l.179-.057a5.85 5.85 0 013.745.063.546.546 0 01.328.699z" transform="translate(-271.209 -42.396)" fill="#282a2d"/></g></g><g id="Group_20438" data-name="Group 20438"><g id="Group_20437" data-name="Group 20437"><path id="Path_16635" data-name="Path 16635" d="M4.866 42.4a14.843 14.843 0 00-4.5.728.545.545 0 00-.366.51v10.8l.341-.138.021-.008a14.721 14.721 0 014.5-.728 15.011 15.011 0 013.774.508V42.905a15.051 15.051 0 00-3.77-.505zm2.3 9.5a.545.545 0 01-.513.361.536.536 0 01-.184-.032 4.749 4.749 0 00-3.042-.051l-.179.057a.546.546 0 01-.335-1.035l.179-.058a5.848 5.848 0 013.745.064.546.546 0 01.329.694zm0-2.983a.546.546 0 01-.7.329 4.749 4.749 0 00-3.042-.052l-.179.057a.546.546 0 01-.334-1.039l.179-.057a5.845 5.845 0 013.745.063.546.546 0 01.331.699zm0-2.983a.545.545 0 01-.7.329 4.749 4.749 0 00-3.042-.052l-.179.057a.546.546 0 11-.334-1.039l.179-.057a5.85 5.85 0 013.745.063.546.546 0 01.331.699z" transform="translate(0 -42.396)" fill="#282a2d"/></g></g><g id="Group_20440" data-name="Group 20440" transform="translate(.985 12.257)"><g id="Group_20439" data-name="Group 20439"><path id="Path_16636" data-name="Path 16636" d="M33.706 385.524a.548.548 0 01-.037-.2v-1.117a13.389 13.389 0 00-2.342-.218 14 14 0 00-3.881.582v1.944a.546.546 0 00.648.536l5.759-1.1v.006a1.978 1.978 0 01-.147-.433z" transform="translate(-27.446 -383.99)" fill="#282a2d"/></g></g><g id="Group_20442" data-name="Group 20442" transform="translate(8.299 12.714)"><g id="Group_20441" data-name="Group 20441"><path id="Path_16637" data-name="Path 16637" d="M232.382 396.919a.545.545 0 01-.4.013c-.007 0-.266-.093-.7-.207v.779a.075.075 0 010 .009.878.878 0 001.731 0v-.784c-.331.092-.553.164-.631.19z" transform="translate(-231.281 -396.725)" fill="#282a2d"/></g></g><g id="Group_20444" data-name="Group 20444" transform="translate(10.941 12.255)"><g id="Group_20443" data-name="Group 20443"><path id="Path_16638" data-name="Path 16638" d="M307.467 383.928a13.406 13.406 0 00-2.383.224v1.087a.543.543 0 01-.019.144 1.957 1.957 0 01-.163.5l.011-.021c6.392 1.193 6.03 1.137 6.126 1.137a.546.546 0 00.546-.546v-1.869a13.916 13.916 0 00-4.118-.656z" transform="translate(-304.902 -383.928)" fill="#282a2d"/></g></g></svg>