<svg id="book" xmlns="http://www.w3.org/2000/svg" width="18.372" height="15.33" viewBox="0 0 18.372 15.33">
  <g id="Group_20436" data-name="Group 20436" transform="translate(9.732 0)">
    <g id="Group_20435" data-name="Group 20435">
      <path id="Path_16634" data-name="Path 16634" d="M279.486,43.124a14.844,14.844,0,0,0-4.5-.728,15.05,15.05,0,0,0-3.774.509V54.068a15.01,15.01,0,0,1,3.774-.508,14.74,14.74,0,0,1,4.5.728l.021.008.34.138v-10.8A.545.545,0,0,0,279.486,43.124Zm-2.2,8.776a.546.546,0,0,1-.514.361.539.539,0,0,1-.184-.032,4.748,4.748,0,0,0-3.042-.051l-.179.057a.546.546,0,1,1-.334-1.039l.179-.058a5.848,5.848,0,0,1,3.745.064A.546.546,0,0,1,277.283,51.9Zm0-2.983a.546.546,0,0,1-.7.329,4.748,4.748,0,0,0-3.042-.052l-.179.057a.546.546,0,1,1-.334-1.039l.179-.057a5.845,5.845,0,0,1,3.745.063A.546.546,0,0,1,277.283,48.917Zm0-2.983a.545.545,0,0,1-.7.329,4.748,4.748,0,0,0-3.042-.052l-.179.057a.546.546,0,0,1-.334-1.039l.179-.057a5.85,5.85,0,0,1,3.745.063A.546.546,0,0,1,277.283,45.934Z" transform="translate(-271.209 -42.396)" fill="#282a2d"/>
    </g>
  </g>
  <g id="Group_20438" data-name="Group 20438" transform="translate(0 0)">
    <g id="Group_20437" data-name="Group 20437">
      <path id="Path_16635" data-name="Path 16635" d="M4.866,42.4a14.843,14.843,0,0,0-4.5.728A.545.545,0,0,0,0,43.638v10.8L.341,54.3l.021-.008a14.721,14.721,0,0,1,4.5-.728,15.011,15.011,0,0,1,3.774.508V42.905A15.051,15.051,0,0,0,4.866,42.4Zm2.3,9.5a.545.545,0,0,1-.513.361.536.536,0,0,1-.184-.032,4.749,4.749,0,0,0-3.042-.051l-.179.057A.546.546,0,0,1,2.913,51.2l.179-.058a5.848,5.848,0,0,1,3.745.064A.546.546,0,0,1,7.166,51.9Zm0-2.983a.546.546,0,0,1-.7.329,4.749,4.749,0,0,0-3.042-.052l-.179.057a.546.546,0,0,1-.334-1.039l.179-.057a5.845,5.845,0,0,1,3.745.063A.546.546,0,0,1,7.166,48.917Zm0-2.983a.545.545,0,0,1-.7.329,4.749,4.749,0,0,0-3.042-.052l-.179.057a.546.546,0,1,1-.334-1.039l.179-.057a5.85,5.85,0,0,1,3.745.063A.546.546,0,0,1,7.166,45.934Z" transform="translate(0 -42.396)" fill="#282a2d"/>
    </g>
  </g>
  <g id="Group_20440" data-name="Group 20440" transform="translate(0.985 12.257)">
    <g id="Group_20439" data-name="Group 20439">
      <path id="Path_16636" data-name="Path 16636" d="M33.706,385.524a.548.548,0,0,1-.037-.2v-1.117a13.389,13.389,0,0,0-2.342-.218,14,14,0,0,0-3.881.582v1.944a.546.546,0,0,0,.648.536l5.759-1.1,0,.006A1.978,1.978,0,0,1,33.706,385.524Z" transform="translate(-27.446 -383.99)" fill="#282a2d"/>
    </g>
  </g>
  <g id="Group_20442" data-name="Group 20442" transform="translate(8.299 12.714)">
    <g id="Group_20441" data-name="Group 20441" transform="translate(0 0)">
      <path id="Path_16637" data-name="Path 16637" d="M232.382,396.919a.545.545,0,0,1-.4.013c-.007,0-.266-.093-.7-.207v.779a.075.075,0,0,1,0,.009.878.878,0,0,0,1.731,0v-.784C232.682,396.821,232.46,396.893,232.382,396.919Z" transform="translate(-231.281 -396.725)" fill="#282a2d"/>
    </g>
  </g>
  <g id="Group_20444" data-name="Group 20444" transform="translate(10.941 12.255)">
    <g id="Group_20443" data-name="Group 20443">
      <path id="Path_16638" data-name="Path 16638" d="M307.467,383.928a13.406,13.406,0,0,0-2.383.224v1.087a.543.543,0,0,1-.019.144,1.957,1.957,0,0,1-.163.5l.011-.021c6.392,1.193,6.03,1.137,6.126,1.137a.546.546,0,0,0,.546-.546v-1.869l0,0A13.916,13.916,0,0,0,307.467,383.928Z" transform="translate(-304.902 -383.928)" fill="#282a2d"/>
    </g>
  </g>
</svg>
