<svg xmlns="http://www.w3.org/2000/svg" width="18.267" height="18.268" viewBox="0 0 18.267 18.268"><g transform="translate(-0.005 0)"><path d="M173.933,218.766a4.561,4.561,0,0,1,3.09,3.023c.407-.325.905-.729,1.455-1.189l-3.372-3.373C174.65,217.809,174.252,218.336,173.933,218.766Z" transform="translate(-167.723 -209.477)" fill="#333"/><path d="M233.63.012c-2.59.272-6.438,4.874-8.067,6.894l3.52,3.521c1.982-1.709,6.557-5.8,6.7-8.4A1.879,1.879,0,0,0,233.63.012Z" transform="translate(-217.511)" fill="#333"/><path d="M1.876,287.074c-1.559,1.949-.254,3.689-1.725,5.24a.535.535,0,0,0,.178.86,6.623,6.623,0,0,0,6.926-1.133,3.909,3.909,0,0,0,.129-5.459,3.765,3.765,0,0,0-5.507.492Z" transform="translate(0 -275.409)" fill="#333"/></g></svg>