<svg xmlns="http://www.w3.org/2000/svg" width="22" height="15.707" viewBox="0 0 22 15.707"><g transform="translate(-445.988 133.26)"><path d="M21.729,243.044c.014-.018.028-.036.041-.056s.023-.038.034-.056.021-.034.031-.052.019-.039.028-.059.018-.037.026-.056.014-.039.021-.058.015-.041.021-.061.01-.039.015-.059.011-.042.016-.064.007-.046.01-.069.006-.037.008-.057a1.3,1.3,0,0,0,0-.255c0-.019-.005-.038-.008-.057s-.006-.046-.01-.069-.01-.043-.016-.064-.009-.039-.015-.059-.014-.041-.022-.062-.013-.039-.021-.058-.017-.037-.026-.056-.018-.04-.028-.059-.02-.035-.031-.052-.022-.038-.034-.057-.027-.037-.041-.055-.022-.031-.035-.046q-.04-.049-.084-.093h0l-3.882-3.882a1.294,1.294,0,0,0-1.83,1.83l1.673,1.673H10.341a7.758,7.758,0,0,1-7.765-7.765,1.3,1.3,0,1,0-2.588,0,10.346,10.346,0,0,0,10.338,10.353h7.243L15.9,245.237a1.294,1.294,0,0,0,1.83,1.83l3.882-3.882h0c.03-.03.058-.061.085-.094C21.707,243.075,21.718,243.059,21.729,243.044Z" transform="translate(446 -365)"/></g></svg>