<svg xmlns="http://www.w3.org/2000/svg" width="15.178" height="14.166"><g id="Group_20390" data-name="Group 20390"><g id="Group_20380" data-name="Group 20380" transform="translate(12.142)"><g id="Group_20379" data-name="Group 20379"><path id="Path_16615" data-name="Path 16615" d="M31.062 250.575h2.024a.506.506 0 00.506-.506v-8.095a.506.506 0 00-.506-.506h-2.024a.506.506 0 00-.506.506v8.095a.506.506 0 00.506.506z" transform="translate(-30.556 -241.468)" fill="#d1d8de"/></g></g><g id="Group_20382" data-name="Group 20382"><g id="Group_20381" data-name="Group 20381"><path id="Path_16616" data-name="Path 16616" d="M150.8 98.938a1.591 1.591 0 001.612 1.341h3.944a8.735 8.735 0 00-.507 2.991 2.107 2.107 0 002.112 2.068h.417a.506.506 0 00.506-.506 7.063 7.063 0 011.315-4.141 5.6 5.6 0 011.721-1.112v-7.591a11.819 11.819 0 00-4.173-.816h-3.31a1.538 1.538 0 00-1.517 2.077 1.518 1.518 0 00-1.012 2.024 1.519 1.519 0 00-.731 2.476 1.515 1.515 0 00-.377 1.189z" transform="translate(-150.794 -91.172)" fill="#d1d8de"/></g></g></g></svg>