<svg xmlns="http://www.w3.org/2000/svg" width="15.178" height="14.166" viewBox="0 0 15.178 14.166">
  <g id="Group_20390" data-name="Group 20390" transform="translate(0)">
    <g id="Group_20380" data-name="Group 20380" transform="translate(12.142 0)">
      <g id="Group_20379" data-name="Group 20379" transform="translate(0)">
        <path id="Path_16615" data-name="Path 16615" d="M31.062,250.575h2.024a.506.506,0,0,0,.506-.506v-8.095a.506.506,0,0,0-.506-.506H31.062a.506.506,0,0,0-.506.506v8.095A.506.506,0,0,0,31.062,250.575Z" transform="translate(-30.556 -241.468)" fill="#d1d8de"/>
      </g>
    </g>
    <g id="Group_20382" data-name="Group 20382" transform="translate(0 0)">
      <g id="Group_20381" data-name="Group 20381">
        <path id="Path_16616" data-name="Path 16616" d="M150.8,98.938a1.591,1.591,0,0,0,1.612,1.341h3.944a8.735,8.735,0,0,0-.507,2.991,2.107,2.107,0,0,0,2.112,2.068h.417a.506.506,0,0,0,.506-.506,7.063,7.063,0,0,1,1.315-4.141,5.6,5.6,0,0,1,1.721-1.112V91.988a11.819,11.819,0,0,0-4.173-.816h-3.31a1.538,1.538,0,0,0-1.517,2.077,1.518,1.518,0,0,0-1.012,2.024,1.519,1.519,0,0,0-.731,2.476A1.515,1.515,0,0,0,150.8,98.938Z" transform="translate(-150.794 -91.172)" fill="#d1d8de"/>
      </g>
    </g>
  </g>
</svg>
