<svg id="eye" xmlns="http://www.w3.org/2000/svg" width="14.578" height="13.364" viewBox="0 0 14.578 13.364">
  <path id="Path_15150" data-name="Path 15150" d="M35.117,7.923a2,2,0,0,0,0-1.522,7.675,7.675,0,0,0-7.139-4.706,7.826,7.826,0,0,0-3.692.917L22.333.658a.607.607,0,0,0-.859.859l7.73,7.73,2.463,2.463,1.955,1.955a.607.607,0,1,0,.859-.858l-1.77-1.77A7.53,7.53,0,0,0,35.117,7.923Zm-8.369-2.85a2.385,2.385,0,0,1,1.23-.341,2.432,2.432,0,0,1,2.43,2.43,2.386,2.386,0,0,1-.341,1.23Zm0,0" transform="translate(-20.689 -0.479)" fill="#d1d8de"/>
  <path id="Path_15151" data-name="Path 15151" d="M7.288,125.7a2.432,2.432,0,0,1-2.43-2.43,2.359,2.359,0,0,1,.026-.256l-3.023-3.023A7.542,7.542,0,0,0,.149,122.51a2,2,0,0,0,0,1.522,7.674,7.674,0,0,0,7.138,4.706,7.879,7.879,0,0,0,2.806-.513l-2.55-2.55A2.356,2.356,0,0,1,7.288,125.7Zm0,0" transform="translate(0.001 -116.589)" fill="#d1d8de"/>
</svg>
