<svg xmlns="http://www.w3.org/2000/svg" width="22" height="22" viewBox="0 0 22 22"><g><g><g><g><path fill="#282a2d" d="M20.305 18.743a1.562 1.562 0 0 1-3.124 0V7.03h3.124v11.714zm-7.029-9.371H3.905a.781.781 0 1 1 0-1.562h9.371a.781.781 0 1 1 0 1.562zm0 3.123H3.905a.781.781 0 1 1 0-1.562h9.371a.781.781 0 1 1 0 1.562zm0 3.124H3.905a.781.781 0 1 1 0-1.562h9.371a.781.781 0 1 1 0 1.562zm0 3.124H3.905a.781.781 0 1 1 0-1.562h9.371a.781.781 0 1 1 0 1.562zM6.248 3.905h4.685a.781.781 0 1 1 0 1.562H6.248a.781.781 0 1 1 0-1.562zM17.18 5.467V.78a.781.781 0 0 0-.78-.781H.78A.781.781 0 0 0 0 .78v17.963a3.124 3.124 0 0 0 3.124 3.124h15.62a3.124 3.124 0 0 0 3.123-3.124V6.248a.781.781 0 0 0-.78-.781z"/></g></g></g></g></svg>
