<svg xmlns="http://www.w3.org/2000/svg" width="17.593" height="15.652"><path id="heart" d="M16.2 1.532A4.731 4.731 0 0012.678 0a4.426 4.426 0 00-2.764.954A5.655 5.655 0 008.8 2.121 5.652 5.652 0 007.679.954 4.425 4.425 0 004.914 0 4.731 4.731 0 001.4 1.532 5.5 5.5 0 000 5.287a6.548 6.548 0 001.745 4.286 37.205 37.205 0 004.368 4.1c.605.516 1.291 1.1 2 1.723a1.033 1.033 0 001.36 0c.712-.623 1.4-1.208 2-1.724a37.188 37.188 0 004.368-4.1 6.547 6.547 0 001.745-4.286A5.5 5.5 0 0016.2 1.532zm0 0" fill="#d1d8de"/></svg>