<svg xmlns="http://www.w3.org/2000/svg" width="153.992" height="38.024" viewBox="0 0 153.992 38.024"><g transform="translate(-31 -86.28)"><g transform="translate(-144 -130)"><path d="M9.855.932A2.878,2.878,0,0,0,7.714,0,2.693,2.693,0,0,0,6.032.581a3.441,3.441,0,0,0-.68.71,3.439,3.439,0,0,0-.68-.71A2.693,2.693,0,0,0,2.99,0,2.879,2.879,0,0,0,.849.932,3.346,3.346,0,0,0,0,3.217,3.984,3.984,0,0,0,1.062,5.825,22.638,22.638,0,0,0,3.719,8.32c.368.314.786.67,1.219,1.049a.628.628,0,0,0,.827,0c.433-.379.851-.735,1.219-1.049A22.628,22.628,0,0,0,9.643,5.825,3.984,3.984,0,0,0,10.7,3.217,3.346,3.346,0,0,0,9.855.932Zm0,0" transform="translate(229.041 216.28)" fill="#e1393f"/><path d="M186.964-36.3Zm11.966-12.491a4.891,4.891,0,0,1,.5.213v-4.509a3.125,3.125,0,0,1,.929-2.276,3.087,3.087,0,0,1,2.29-.943,3.139,3.139,0,0,1,1.6.461,3.25,3.25,0,0,1,1.163,1.2,3.228,3.228,0,0,1,.425,1.616v16.7a3.291,3.291,0,0,1-.418,1.666,3.008,3.008,0,0,1-1.141,1.141,3.24,3.24,0,0,1-1.63.411l-2.665-1.588v.113a4.644,4.644,0,0,1-3.63,1.531,8.463,8.463,0,0,1-1.4-.142,7.16,7.16,0,0,1-3.934-2.191,8.381,8.381,0,0,1-2.134-4.289,9.844,9.844,0,0,1-.142-1.616,8.036,8.036,0,0,1,.2-1.829,8.665,8.665,0,0,1,1.361-3.077,7.337,7.337,0,0,1,2.325-2.127,6.813,6.813,0,0,1,3.516-.978A8.375,8.375,0,0,1,198.931-48.786Zm-3.771,7.557a2.708,2.708,0,0,0,.652,1.886,2.074,2.074,0,0,0,1.6.723,2.011,2.011,0,0,0,1.4-.581,2.8,2.8,0,0,0,.73-1.588v-.964a2.264,2.264,0,0,0-1.716-2,3.4,3.4,0,0,0-.5-.057,1.92,1.92,0,0,0-1.389.567,2.748,2.748,0,0,0-.751,1.545A2.684,2.684,0,0,0,195.159-41.229Zm29.065-.992a2.69,2.69,0,0,1-.61,2,2.887,2.887,0,0,1-2.027.581H214.03a7.222,7.222,0,0,0,.525.553,3.388,3.388,0,0,0,.787.461,4.638,4.638,0,0,0,1.014.241,11.027,11.027,0,0,0,1.545.092,10.757,10.757,0,0,0,2.226-.411,7.169,7.169,0,0,1,1.46-.255,2.526,2.526,0,0,1,1.836.666,2.2,2.2,0,0,1,.688,1.645,2.107,2.107,0,0,1-.057.553,2.817,2.817,0,0,1-.489.964,3.249,3.249,0,0,1-.879.759,8.606,8.606,0,0,1-1.538.688,14.819,14.819,0,0,1-2.5.525,15.221,15.221,0,0,1-1.914.113,11.687,11.687,0,0,1-3.878-.617,8.817,8.817,0,0,1-3.027-1.751,7.5,7.5,0,0,1-1.914-2.665,8.451,8.451,0,0,1-.652-3.346,7.781,7.781,0,0,1,.716-3.07,7.87,7.87,0,0,1,1.815-2.524,8.434,8.434,0,0,1,2.715-1.666,9.339,9.339,0,0,1,3.4-.61,8.937,8.937,0,0,1,4.324,1.12,8.37,8.37,0,0,1,2.049,1.68,8.408,8.408,0,0,1,1.389,2.113A5.812,5.812,0,0,1,224.225-42.222ZM214.087-42.8h3.459a1.193,1.193,0,0,0-.028-.284q-.213-1.4-1.971-1.4a1.93,1.93,0,0,0-1.4,1.432A.9.9,0,0,0,214.087-42.8Z" transform="translate(104.767 287.353)" fill="#e1393f"/><circle cx="3.5" cy="3.5" r="3.5" transform="translate(285 247)" fill="#e1393f"/><path d="M4-24.875A12.768,12.768,0,0,1,1.421-32.5a11.766,11.766,0,0,1,.852-4.181A13.568,13.568,0,0,1,4.537-40.5,14.639,14.639,0,0,1,6.51-42.36a12.837,12.837,0,0,1,3.923-2.006,15.985,15.985,0,0,1,4.752-.661,19.541,19.541,0,0,1,2.174.09q7.666.785,7.666,6.277a4.187,4.187,0,0,1-1.5,2.668,4.656,4.656,0,0,1-3.049,1.009,4.069,4.069,0,0,1-.785-.09l-.224-.045-1.188-.269-.605-.134-.964-.2a6.184,6.184,0,0,0-1.233-.09,4.053,4.053,0,0,0-2.869,1,3.476,3.476,0,0,0-1.076,2.679,3.612,3.612,0,0,0,.493,1.692,3.749,3.749,0,0,0,1.278,1.2,4.1,4.1,0,0,0,2.04.516,9.561,9.561,0,0,0,1.457-.134h.134l1.614-.381a10.5,10.5,0,0,1,1.748-.224,4.659,4.659,0,0,1,3.531,1.345,5.125,5.125,0,0,1,1.289,3.7,4.412,4.412,0,0,1-1.278,2.567,7.2,7.2,0,0,1-3.206,1.692,19.461,19.461,0,0,1-5.245.605,16.315,16.315,0,0,1-6.624-1.4A12.112,12.112,0,0,1,4-24.875Zm28.087,5.357a4.877,4.877,0,0,1-3.575-1.491,4.955,4.955,0,0,1-1.491-3.643v-26.63a4.878,4.878,0,0,1,.684-2.511,5.1,5.1,0,0,1,1.849-1.849,5.347,5.347,0,0,1,2.578-.729,4.981,4.981,0,0,1,2.6.695A5.164,5.164,0,0,1,36.581-53.8a5.02,5.02,0,0,1,.684,2.567v7.442a14.35,14.35,0,0,1,1.793-.785,15.479,15.479,0,0,1,4.506-.74,10.329,10.329,0,0,1,3.732.65,8.327,8.327,0,0,1,2.858,1.782,7.956,7.956,0,0,1,1.827,2.768,9.244,9.244,0,0,1,.661,3.5v12.06a5.018,5.018,0,0,1-1.513,3.687,5.044,5.044,0,0,1-3.71,1.513,5.245,5.245,0,0,1-3.6-1.614,5,5,0,0,1-1.468-3.631V-34.29a2.622,2.622,0,0,0-.717-1.8,2.339,2.339,0,0,0-1.748-.818,2.594,2.594,0,0,0-1.838.74,2.424,2.424,0,0,0-.785,1.838v9.729a4.956,4.956,0,0,1-.706,2.578,5,5,0,0,1-1.894,1.849A5.214,5.214,0,0,1,32.087-19.518Zm28.468,0a4.9,4.9,0,0,1-3.6-1.491,4.955,4.955,0,0,1-1.491-3.643V-40.118a5.061,5.061,0,0,1,.684-2.589,5.051,5.051,0,0,1,1.861-1.861,5.062,5.062,0,0,1,2.589-.684,5.063,5.063,0,0,1,2.555.717A5.192,5.192,0,0,1,65-42.674a5.044,5.044,0,0,1,.684,2.6V-24.7a5,5,0,0,1-1.5,3.676A4.947,4.947,0,0,1,60.555-19.518Zm9.415-1.457a5.01,5.01,0,0,1-1.524-3.676V-51.237a4.818,4.818,0,0,1,.695-2.511A5.138,5.138,0,0,1,71.023-55.6a5.164,5.164,0,0,1,2.623-.684,4.9,4.9,0,0,1,2.522.729,5.129,5.129,0,0,1,1.816,1.872,5.047,5.047,0,0,1,.661,2.533V-24.7a5.184,5.184,0,0,1-1.457,3.721,5.176,5.176,0,0,1-3.631,1.457A5.021,5.021,0,0,1,69.97-20.975ZM97-44.445a7.734,7.734,0,0,1,.785.336v-7.128a4.94,4.94,0,0,1,1.468-3.6,4.881,4.881,0,0,1,3.62-1.491,4.962,4.962,0,0,1,2.533.729,5.138,5.138,0,0,1,1.838,1.894,5.1,5.1,0,0,1,.672,2.555v26.406a5.2,5.2,0,0,1-.661,2.634,4.756,4.756,0,0,1-1.8,1.8,5.122,5.122,0,0,1-2.578.65l-4.214-2.511v.179a7.342,7.342,0,0,1-5.739,2.421,13.38,13.38,0,0,1-2.219-.224,11.32,11.32,0,0,1-6.22-3.463,13.25,13.25,0,0,1-3.374-6.781,15.566,15.566,0,0,1-.224-2.555,12.705,12.705,0,0,1,.314-2.892,13.7,13.7,0,0,1,2.152-4.864,11.6,11.6,0,0,1,3.676-3.362,10.771,10.771,0,0,1,5.559-1.547A13.242,13.242,0,0,1,97-44.445ZM91.041-32.5a4.281,4.281,0,0,0,1.031,2.981,3.279,3.279,0,0,0,2.533,1.143,3.179,3.179,0,0,0,2.208-.919A4.43,4.43,0,0,0,97.968-31.8v-1.524a3.58,3.58,0,0,0-2.712-3.161,5.375,5.375,0,0,0-.785-.09,3.036,3.036,0,0,0-2.2.9,4.344,4.344,0,0,0-1.188,2.443A4.245,4.245,0,0,0,91.041-32.5Z" transform="translate(173.578 273.523)" fill="#333"/></g></g></svg>