<svg xmlns="http://www.w3.org/2000/svg" width="112" height="27.574" viewBox="0 0 112 27.574"><g transform="translate(-25 -84.716)"><path d="M6.622.626A1.934,1.934,0,0,0,5.184,0a1.81,1.81,0,0,0-1.13.39A2.312,2.312,0,0,0,3.6.867,2.311,2.311,0,0,0,3.139.39,1.809,1.809,0,0,0,2.009,0,1.934,1.934,0,0,0,.571.626,2.248,2.248,0,0,0,0,2.162,2.677,2.677,0,0,0,.713,3.914,15.212,15.212,0,0,0,2.5,5.59c.247.211.528.45.819.7a.422.422,0,0,0,.556,0c.291-.255.572-.494.819-.7A15.2,15.2,0,0,0,6.48,3.914a2.677,2.677,0,0,0,.713-1.752A2.248,2.248,0,0,0,6.622.626Zm0,0" transform="translate(59.336 88.784)" fill="#e1393f"/><path d="M2.635-39.123A7.212,7.212,0,0,1,4.2-43.831a8.407,8.407,0,0,1,6.962-2.982,8.181,8.181,0,0,1,3.353.671q1.983.87,2,2.425a1.989,1.989,0,0,1-.628,1.462,2.073,2.073,0,0,1-1.512.621,6.4,6.4,0,0,1-1.584-.414,4.376,4.376,0,0,0-1.6-.385,3.163,3.163,0,0,0-2.34.884,3.431,3.431,0,0,0-.9,2.425A3.552,3.552,0,0,0,8.8-36.641a2.963,2.963,0,0,0,2.4.956,5.917,5.917,0,0,0,1.7-.285q.171-.057.506-.207a3.691,3.691,0,0,1,.556-.207,2.168,2.168,0,0,1,.535-.057,1.975,1.975,0,0,1,1.477.628,2.1,2.1,0,0,1,.606,1.512q0,1.669-2.639,2.511a10.013,10.013,0,0,1-2.91.414,8.347,8.347,0,0,1-6.491-2.468A7.442,7.442,0,0,1,2.635-39.123ZM19.041-33.9v-17.4a2.393,2.393,0,0,1,.777-1.8,2.551,2.551,0,0,1,1.819-.742A2.54,2.54,0,0,1,23.5-53.1a2.436,2.436,0,0,1,.749,1.8v5.863a5.685,5.685,0,0,1,1.6-.927,6.43,6.43,0,0,1,2.4-.442,6.107,6.107,0,0,1,4.351,1.5,5.936,5.936,0,0,1,1.669,4.522v6.89a2.416,2.416,0,0,1-.756,1.776,2.517,2.517,0,0,1-1.84.749,2.517,2.517,0,0,1-1.84-.749A2.416,2.416,0,0,1,29.07-33.9v-5.778a3.852,3.852,0,0,0-.5-2.283,1.869,1.869,0,0,0-1.5-.613,2.373,2.373,0,0,0-2.211,1.2,4.9,4.9,0,0,0-.613,2.6V-33.9a2.384,2.384,0,0,1-.777,1.776,2.547,2.547,0,0,1-1.826.749,2.547,2.547,0,0,1-1.826-.749A2.384,2.384,0,0,1,19.041-33.9Zm18.874,0V-44.3a2.382,2.382,0,0,1,.763-1.769,2.562,2.562,0,0,1,1.855-.742,2.5,2.5,0,0,1,1.84.749,2.411,2.411,0,0,1,.749,1.762v10.4a2.384,2.384,0,0,1-.777,1.776,2.555,2.555,0,0,1-1.833.749,2.517,2.517,0,0,1-1.84-.749A2.416,2.416,0,0,1,37.915-33.9Zm9.1,0v-17.4a2.393,2.393,0,0,1,.778-1.8,2.551,2.551,0,0,1,1.819-.742,2.54,2.54,0,0,1,1.862.742,2.436,2.436,0,0,1,.749,1.8v17.4a2.384,2.384,0,0,1-.777,1.776,2.547,2.547,0,0,1-1.826.749,2.547,2.547,0,0,1-1.826-.749A2.384,2.384,0,0,1,47.016-33.9Zm8.231-5.107a7.9,7.9,0,0,1,1.726-5.264q2.1-2.568,6.363-2.568a10.2,10.2,0,0,1,1.669.114v-4.608a2.448,2.448,0,0,1,.742-1.8,2.5,2.5,0,0,1,1.84-.742,2.547,2.547,0,0,1,1.855.742,2.425,2.425,0,0,1,.756,1.8v16.82a2.608,2.608,0,0,1-.842,2.076,3.075,3.075,0,0,1-2.1.735H64.036a9.927,9.927,0,0,1-6.306-1.812A6.591,6.591,0,0,1,55.248-39.009Zm5.35-.086a2.808,2.808,0,0,0,1.07,2.425,5.334,5.334,0,0,0,2.953.642h.385V-42.3q-.471-.057-1.37-.071a2.85,2.85,0,0,0-2.368,1.084A3.532,3.532,0,0,0,60.6-39.094Z" transform="translate(22.365 143.282)" fill="#333"/><path d="M658.3,428.973a7.144,7.144,0,0,1,1.53.155,3.867,3.867,0,0,1,1.324.567q2.131-4.435,3.421-7.031a24.283,24.283,0,0,1,1.977-3.49,1.237,1.237,0,0,1,.791-.481,5.728,5.728,0,0,1,1.513-.172,8.072,8.072,0,0,1,1.169.086,5.713,5.713,0,0,1,1.031.241,2.379,2.379,0,0,1,.7.361.36.36,0,0,1,.155.447q-.516,1.375-1.324,3.008t-1.719,3.369q-.911,1.737-1.874,3.507t-1.771,3.472q-.808,1.7-1.427,3.232a15.252,15.252,0,0,0-.86,2.768,2.278,2.278,0,0,0-.034,1.031c.069.206.177.315.327.327a.745.745,0,0,0,.516-.241,3.441,3.441,0,0,0,.567-.67q.378-.516.825-1.152t.842-1.238q.395-.6.7-1.1t.413-.7a2.278,2.278,0,0,1,1.049-1.117,1.392,1.392,0,0,1,1.083-.069,1.252,1.252,0,0,1,.7.757,1.758,1.758,0,0,1-.12,1.358q-.963,1.582-1.685,2.905a26.488,26.488,0,0,1-1.513,2.458,13.576,13.576,0,0,1-2.441,2.6,4.881,4.881,0,0,1-3.163,1.083,3.131,3.131,0,0,1-1.977-.653,2.1,2.1,0,0,1-.842-1.753,15.565,15.565,0,0,1-1.324,1.238,9.789,9.789,0,0,1-1.547,1.066,7.063,7.063,0,0,1-1.685.67,4.354,4.354,0,0,1-4.968-2.458,6.242,6.242,0,0,1-.31-2.871,12.566,12.566,0,0,1,.791-3.163,16.377,16.377,0,0,1,3.833-5.759,11.028,11.028,0,0,1,2.6-1.874A5.923,5.923,0,0,1,658.3,428.973Zm-2.544,6.5a10.291,10.291,0,0,0-1.341,1.96,9.711,9.711,0,0,0-.757,1.874,5.89,5.89,0,0,0-.241,1.53,1.586,1.586,0,0,0,.206.928q.137.206.55-.206a9.493,9.493,0,0,0,.98-1.221q.567-.807,1.221-1.891t1.306-2.2q.653-1.117,1.221-2.183t.98-1.822q-.172-.413-1.2.258A15.689,15.689,0,0,0,655.753,435.471Z" transform="translate(-545.402 -333.805)" fill="#e1393f"/><path d="M754.073,498.088a7.515,7.515,0,0,1-1.753-.224,7.633,7.633,0,0,1-1.753-.653,5.983,5.983,0,0,1-1.478-1.083,3.721,3.721,0,0,1-.928-1.513,5.531,5.531,0,0,1-.4-1.736,8.986,8.986,0,0,1,.069-1.753,8.625,8.625,0,0,1,.413-1.7,14.035,14.035,0,0,1,.67-1.582,14.85,14.85,0,0,1,1.719-2.63,13.576,13.576,0,0,1,2.166-2.132,11,11,0,0,1,2.407-1.444,6.066,6.066,0,0,1,2.407-.533,4.915,4.915,0,0,1,2.974.7,2.235,2.235,0,0,1,.928,1.8,5.059,5.059,0,0,1-.7,2.441,14.653,14.653,0,0,1-1.856,2.647,16.535,16.535,0,0,1-2.579,2.39,13.246,13.246,0,0,1-2.854,1.667,2.615,2.615,0,0,0,.344,1.375,1.269,1.269,0,0,0,.808.55,2.327,2.327,0,0,0,1.135-.086,4.649,4.649,0,0,0,1.255-.6,5.231,5.231,0,0,0,1.289-1.083q.671-.739,1.358-1.616t1.324-1.822q.635-.945,1.152-1.771a1.986,1.986,0,0,1,1.014-.98,1.378,1.378,0,0,1,1.066-.017,1.264,1.264,0,0,1,.67.739,1.5,1.5,0,0,1-.172,1.255q-1.1,1.823-2.218,3.507a20.571,20.571,0,0,1-2.389,2.991,11.1,11.1,0,0,1-2.768,2.1A6.982,6.982,0,0,1,754.073,498.088Zm-.722-8.664q.481-.275,1.1-.7a9.746,9.746,0,0,0,1.307-1.117,5.586,5.586,0,0,0,1.135-1.41,5.669,5.669,0,0,0,.584-1.341q.137-.549-.12-.67t-.946.567a9.228,9.228,0,0,0-.911,1.083q-.464.636-.877,1.272t-.756,1.2q-.344.568-.516.877Z" transform="translate(-628.01 -385.798)" fill="#e1393f"/><circle cx="2.453" cy="2.453" r="2.453" transform="translate(95.513 106.616)" fill="#e1393f"/></g></svg>