<svg xmlns="http://www.w3.org/2000/svg" width="22" height="22" viewBox="0 0 22 22"><g><g><g><g><g><path fill="#282a2d" d="M16.438 6.266l-3.484 6.474a.515.515 0 0 1-.21.21l-6.473 3.483a.515.515 0 0 1-.698-.699l3.483-6.473a.516.516 0 0 1 .21-.21l6.473-3.483a.516.516 0 0 1 .699.698zM11 0C4.935 0 0 4.935 0 11c0 6.066 4.934 11 11 11 6.065 0 11-4.934 11-11 0-6.065-4.935-11-11-11z"/></g></g></g><g><g><g><path fill="#282a2d" d="M11.01 9.802a1.2 1.2 0 1 0 0 2.401 1.2 1.2 0 0 0 0-2.401z"/></g></g></g></g></g></svg>
