<svg xmlns="http://www.w3.org/2000/svg" width="17.593" height="15.652" viewBox="0 0 17.593 15.652"><path d="M16.2,1.532A4.731,4.731,0,0,0,12.678,0,4.426,4.426,0,0,0,9.914.954,5.655,5.655,0,0,0,8.8,2.121,5.652,5.652,0,0,0,7.679.954,4.425,4.425,0,0,0,4.914,0,4.731,4.731,0,0,0,1.4,1.532,5.5,5.5,0,0,0,0,5.287,6.548,6.548,0,0,0,1.745,9.573a37.205,37.205,0,0,0,4.368,4.1c.605.516,1.291,1.1,2,1.723a1.033,1.033,0,0,0,1.36,0c.712-.623,1.4-1.208,2-1.724a37.188,37.188,0,0,0,4.368-4.1,6.547,6.547,0,0,0,1.745-4.286A5.5,5.5,0,0,0,16.2,1.532Zm0,0" fill="#d1d8de"/></svg>