<svg xmlns="http://www.w3.org/2000/svg" width="21.999" height="22"><g id="paintbrush" transform="translate(-.005)" fill="#333"><path id="Path_16671" data-name="Path 16671" d="M173.933 219.08a5.493 5.493 0 013.721 3.64 93.56 93.56 0 001.752-1.432l-4.061-4.062c-.545.702-1.028 1.337-1.412 1.854z" transform="translate(-166.455 -207.893)"/><path id="Path_16672" data-name="Path 16672" d="M235.278.015c-3.119.328-7.753 5.87-9.715 8.3l4.24 4.24c2.387-2.058 7.9-6.983 8.064-10.112a2.263 2.263 0 00-2.589-2.43z" transform="translate(-215.867)"/><path id="Path_16673" data-name="Path 16673" d="M2.259 287.375c-1.878 2.348-.306 4.442-2.077 6.31a.645.645 0 00.218 1.036c2.934 1.256 6.628.44 8.34-1.365a4.707 4.707 0 00.155-6.574 4.534 4.534 0 00-6.632.592z" transform="translate(0 -273.328)"/></g></svg>