<svg xmlns="http://www.w3.org/2000/svg" width="21.999" height="22" viewBox="0 0 21.999 22">
  <g id="paintbrush" transform="translate(-0.005 0)">
    <path id="Path_16671" data-name="Path 16671" d="M173.933,219.08a5.493,5.493,0,0,1,3.721,3.64c.49-.391,1.09-.877,1.752-1.432l-4.061-4.062C174.8,217.928,174.317,218.563,173.933,219.08Z" transform="translate(-166.455 -207.893)" fill="#333"/>
    <path id="Path_16672" data-name="Path 16672" d="M235.278.015c-3.119.328-7.753,5.87-9.715,8.3l4.24,4.24c2.387-2.058,7.9-6.983,8.064-10.112a2.263,2.263,0,0,0-2.589-2.43Z" transform="translate(-215.867 0)" fill="#333"/>
    <path id="Path_16673" data-name="Path 16673" d="M2.259,287.375c-1.878,2.348-.306,4.442-2.077,6.31A.645.645,0,0,0,.4,294.721c2.934,1.256,6.628.44,8.34-1.365a4.707,4.707,0,0,0,.155-6.574,4.534,4.534,0,0,0-6.632.592Z" transform="translate(0 -273.328)" fill="#333"/>
  </g>
</svg>
