<svg id="pencil" xmlns="http://www.w3.org/2000/svg" width="17.758" height="17.758" viewBox="0 0 17.758 17.758">
  <g id="Group_20531" data-name="Group 20531" transform="translate(0 0)">
    <g id="Group_20530" data-name="Group 20530" transform="translate(0 0)">
      <path id="Path_16682" data-name="Path 16682" d="M13.162,81.519a.415.415,0,0,0-.571,0L4.915,89.2a.4.4,0,0,0,.1.647l.63.316v1.061l-1.931.552L1.77,89.828,2.322,87.9h1.06l.315.631a.4.4,0,0,0,.3.218.4.4,0,0,0,.35-.113l7.676-7.683a.4.4,0,0,0,0-.571l-1.484-1.486a.4.4,0,0,0-.285-.118h0a.4.4,0,0,0-.286.12L1.731,87.207s0,.01-.008.014a.4.4,0,0,0-.094.159l-.7,2.454-.914,3.2A.4.4,0,0,0,.4,93.55a.41.41,0,0,0,.111-.015l3.2-.914,2.452-.7c.007,0,.012-.008.02-.01a.747.747,0,0,0,.137-.08c.005,0,.012-.006.017-.011l8.307-8.24a.4.4,0,0,0,0-.572Z" transform="translate(0 -75.793)" fill="#282a2d"/>
      <path id="Path_16683" data-name="Path 16683" d="M296.605,2.884,294.184.46a1.651,1.651,0,0,0-2.284,0l-1.478,1.493a.4.4,0,0,0,0,.57l4.12,4.124a.4.4,0,0,0,.57,0l1.493-1.481a1.616,1.616,0,0,0,0-2.285Z" transform="translate(-279.32 -0.002)" fill="#282a2d"/>
    </g>
  </g>
</svg>
