<svg xmlns="http://www.w3.org/2000/svg" width="17.785" height="17.785"><path id="picture" d="M16.673 5.558h-.943l-5.224-3.479a1.65 1.65 0 00.053-.411 1.667 1.667 0 10-3.335 0 1.649 1.649 0 00.058.411L2.054 5.558h-.942A1.1 1.1 0 000 6.669v10a1.1 1.1 0 001.112 1.112h15.561a1.1 1.1 0 001.112-1.112v-10a1.1 1.1 0 00-1.112-1.112zM8.892 1.112a.556.556 0 11-.556.556.556.556 0 01.556-.556zM7.9 3a1.637 1.637 0 001.982 0l3.84 2.557H4.063zM2.223 6.669h14.45v4.505L13.16 7.927a.556.556 0 00-.754 0l-4.551 4.2L5.437 9.1a.576.576 0 00-.868 0l-3.457 4.321V6.669z" fill="#282a2d"/></svg>