<svg xmlns="http://www.w3.org/2000/svg" width="23.992" height="24" viewBox="0 0 23.992 24"><g transform="translate(-0.5)"><path d="M7.908,357.127a3.709,3.709,0,0,0-3.7-3.705,3.87,3.87,0,0,0-2.767,1.245A3.7,3.7,0,0,0,4.2,360.833a3.844,3.844,0,0,0,2.507-.981A3.717,3.717,0,0,0,7.908,357.127Zm-2.345.8H4.958v.606a.753.753,0,1,1-1.506,0v-.606H2.845a.753.753,0,1,1,0-1.506h.606v-.606a.753.753,0,1,1,1.506,0v.606h.606a.753.753,0,0,1,0,1.506Zm0,0" transform="translate(0 -336.855)"/><path d="M227.444,187.167a1.425,1.425,0,1,0-1.425-1.425A1.427,1.427,0,0,0,227.444,187.167Zm0,0" transform="translate(-214.948 -175.677)"/><path d="M201.535,275.176a2.794,2.794,0,0,0-2.7,2.087h5.4A2.794,2.794,0,0,0,201.535,275.176Zm0,0" transform="translate(-189.039 -262.277)"/><path d="M20.978,3.515A12,12,0,0,0,.5,12a12.07,12.07,0,0,0,.842,4.422,4.434,4.434,0,0,1,3.263-1.215,5.079,5.079,0,0,1,4.723,4.818,4.825,4.825,0,0,1-1.066,3.2A12.056,12.056,0,0,0,12.5,24,12,12,0,0,0,20.978,3.515ZM15.987,16.392H9a.7.7,0,0,1-.7-.7,4.2,4.2,0,0,1,2.153-3.664,2.831,2.831,0,1,1,4.084,0,4.2,4.2,0,0,1,2.153,3.664A.7.7,0,0,1,15.987,16.392Zm0,0"/></g></svg>