<svg width="24" height="24" viewBox="0 0 24 24" fill="none" xmlns="http://www.w3.org/2000/svg">
<g clip-path="url(#clip0)">
<path d="M12 11.49C12.2819 11.49 12.5575 11.4064 12.7919 11.2499C13.0264 11.0933 13.2091 10.8707 13.317 10.6103C13.4248 10.3499 13.4531 10.0634 13.3981 9.78699C13.3431 9.51057 13.2073 9.25667 13.008 9.05738C12.8086 8.85809 12.5546 8.72236 12.2781 8.66738C12.0016 8.61239 11.715 8.64062 11.4545 8.74848C11.194 8.85633 10.9714 9.03898 10.8147 9.27332C10.6581 9.50766 10.5745 9.78317 10.5745 10.065C10.575 10.4428 10.7254 10.8049 10.9926 11.072C11.2598 11.3392 11.6221 11.4895 12 11.49V11.49Z" fill="#54A1C9"/>
<path d="M12 12.899C11.3824 12.8997 10.7824 13.1048 10.2938 13.4824C9.80515 13.86 9.45538 14.3887 9.2991 14.986H14.7009C14.5446 14.3887 14.1948 13.86 13.7062 13.4824C13.2176 13.1048 12.6176 12.8997 12 12.899Z" fill="#54A1C9"/>
<path d="M20.4848 3.515C18.8057 1.83929 16.6674 0.698596 14.3401 0.236999C12.0129 -0.224597 9.60094 0.0136078 7.409 0.921528C5.21707 1.82945 3.34344 3.36636 2.02476 5.33814C0.706075 7.30993 0.00149361 9.62815 0 12C0.000891255 13.5138 0.28662 15.0138 0.842281 16.422C1.27619 16.0098 1.78907 15.6896 2.35003 15.4808C2.911 15.272 3.50844 15.1789 4.10637 15.207C5.34734 15.2927 6.51375 15.8305 7.38454 16.7185C8.25533 17.6065 8.76997 18.783 8.83094 20.025C8.87216 21.1852 8.49356 22.3213 7.76459 23.225C9.11971 23.7357 10.5558 23.9982 12.004 24C14.3775 23.9985 16.6973 23.2937 18.6701 21.9745C20.643 20.6554 22.1804 18.7813 23.0881 16.5889C23.9957 14.3965 24.2328 11.9844 23.7695 9.65736C23.3061 7.33031 22.1631 5.19281 20.4848 3.515V3.515ZM15.4922 16.392H8.50283C8.31712 16.392 8.13901 16.3183 8.00769 16.187C7.87637 16.0557 7.8026 15.8777 7.8026 15.692C7.8032 14.945 8.0031 14.2117 8.38168 13.5676C8.76025 12.9235 9.30381 12.3921 9.95632 12.028C9.57176 11.6277 9.31341 11.1231 9.21339 10.5772C9.11337 10.0312 9.17608 9.46795 9.39375 8.95735C9.61141 8.44675 9.97441 8.01137 10.4376 7.70535C10.9008 7.39934 11.4438 7.23619 11.999 7.23619C12.5542 7.23619 13.0972 7.39934 13.5604 7.70535C14.0236 8.01137 14.3866 8.44675 14.6042 8.95735C14.8219 9.46795 14.8846 10.0312 14.7846 10.5772C14.6846 11.1231 14.4262 11.6277 14.0417 12.028C14.6942 12.3921 15.2377 12.9235 15.6163 13.5676C15.9949 14.2117 16.1948 14.945 16.1954 15.692C16.1954 15.7842 16.1772 15.8755 16.1418 15.9606C16.1064 16.0457 16.0546 16.123 15.9892 16.188C15.9239 16.2531 15.8464 16.3046 15.7611 16.3396C15.6757 16.3746 15.5844 16.3924 15.4922 16.392V16.392Z" fill="#54A1C9"/>
<path fill-rule="evenodd" clip-rule="evenodd" d="M3.75 24C5.82107 24 7.5 22.3211 7.5 20.25C7.5 18.1789 5.82107 16.5 3.75 16.5C1.67893 16.5 0 18.1789 0 20.25C0 22.3211 1.67893 24 3.75 24ZM3.26913 22.5H3.27011C3.39067 22.5 3.50357 22.4429 3.57239 22.3472L5.93411 19.0596C6.05015 18.8981 6.00892 18.6761 5.84192 18.5638C5.67502 18.4514 5.44568 18.4915 5.32954 18.6529L3.27178 21.5175L2.17162 19.9692C2.05637 19.807 1.82722 19.7659 1.65964 19.8775C1.49205 19.9889 1.44964 20.2107 1.5648 20.3727L2.96665 22.3456C3.03518 22.4421 3.14828 22.4997 3.26913 22.5Z" fill="#54A1C9"/>
</g>
<defs>
<clipPath id="clip0">
<rect width="24" height="24" fill="white"/>
</clipPath>
</defs>
</svg>
