<svg xmlns="http://www.w3.org/2000/svg" width="22" height="22" viewBox="0 0 22 22"><g><g><g><g><g><path fill="#282a2d" d="M13.845 18.63c-.004 0-.005-.004-.008-.006-.54-.292-.89-.932-.89-1.63V15.38c-.67.173-1.075.27-1.94.27-.83 0-1.282-.098-1.94-.265v1.61c0 .698-.35 1.338-.89 1.63l-.003.003a2.86 2.86 0 0 0-.735.555 3.163 3.163 0 0 0-.959 2.287c0 .358.29.647.647.647h7.76c.357 0 .647-.29.647-.647a3.248 3.248 0 0 0-1.69-2.838z"/></g></g></g><g><g><g><path fill="#282a2d" d="M17.269 10.51l-.498.165c.3-.643.497-1.331.57-2.05l.46-4.702h1.176c.954 0 1.73.776 1.73 1.73 0 2.168-1.382 4.17-3.438 4.856zm-2.458-4.223L13.378 7.77l.338 1.972a.647.647 0 0 1-.939.681l-1.77-.93-1.77.93a.647.647 0 0 1-.939-.681l.338-1.972-1.433-1.483a.647.647 0 0 1 .359-1.102l1.98-.288.885-1.794c.217-.442.942-.442 1.16 0l.885 1.794 1.98.288c.529.076.741.73.359 1.102zM4.73 10.51c-2.056-.685-3.437-2.688-3.437-4.856 0-.954.776-1.73 1.73-1.73h1.189l.46 4.707c.077.721.287 1.411.59 2.057zm14.246-7.88H17.93l.13-1.293h.707a.646.646 0 1 0 0-1.293H3.247a.646.646 0 1 0 0 1.293h.708l.129 1.294h-1.06A3.027 3.027 0 0 0 0 5.653c0 2.725 1.737 5.221 4.322 6.083l2.198.733a6.237 6.237 0 0 0 4.487 1.887c1.642 0 3.3-.647 4.532-1.907l2.14-.713C20.263 10.874 22 8.378 22 5.653a3.027 3.027 0 0 0-3.023-3.023z"/></g></g></g><g><g><g><path fill="#282a2d" d="M12.97 6.276l-1.02-.148a.645.645 0 0 1-.487-.354l-.456-.923-.456.923a.645.645 0 0 1-.487.354l-1.02.148.738.762a.733.733 0 0 1 .186.616l-.174 1.015.912-.48c.189-.099.413-.099.602 0l.912.48-.174-1.015a.733.733 0 0 1 .186-.616z"/></g></g></g></g></g></svg>
