<svg xmlns="http://www.w3.org/2000/svg" width="15.995" height="15.996" viewBox="0 0 15.995 15.996">
  <g id="toy" transform="translate(-0.006)">
    <g id="Group_20569" data-name="Group 20569" transform="translate(0.006 0)">
      <path id="Path_16684" data-name="Path 16684" d="M15.319,2.133A.684.684,0,0,0,16,1.451V1.2a.27.27,0,0,0-.107-.213A4.932,4.932,0,0,0,8,4.932q0,.2.016.4H2.139a1.066,1.066,0,1,0,0,2.133h.7a3.188,3.188,0,0,0-.429,1.6v2.351a6.18,6.18,0,0,1-.794-1.738A.807.807,0,0,0,.827,9.1a.809.809,0,0,0-.821.794.721.721,0,0,0,.029.205A7.892,7.892,0,0,0,2.5,13.953a8.261,8.261,0,0,0,1.85,1.216,8.507,8.507,0,0,0,7.315,0c.16-.077.317-.16.472-.245a7.794,7.794,0,0,0,1.1-.741A7.9,7.9,0,0,0,15.972,10.1a.761.761,0,0,0-.131-.674A.837.837,0,0,0,15.18,9.1a.822.822,0,0,0-.586.24.788.788,0,0,0-.2.341,6.3,6.3,0,0,1-1.061,2.111V9.064c0-.069,0-.141-.008-.211a.261.261,0,0,0,0-.112L13.3,8.608V8.6a.122.122,0,0,0,0-.013l-.035-.181c-.011-.043-.013-.085-.027-.128V8.275L12.65,5.353a.355.355,0,0,1-.008-.075.382.382,0,0,1,.291-.371.386.386,0,0,1,.421.171l.336.562a1.013,1.013,0,0,0,1.861-.722L15.057,2.45a.25.25,0,0,1,.056-.219A.259.259,0,0,1,15.319,2.133ZM4.8,5.865H8v1.6a.267.267,0,0,1-.267.267H5.071A.267.267,0,0,1,4.8,7.465v-1.6ZM8,14.4a6.7,6.7,0,0,1-3.991-1.3,3.865,3.865,0,0,1,7.723.184A6.743,6.743,0,0,1,8,14.4ZM14.135,2.933a.267.267,0,1,1-.533,0V2.666a.267.267,0,1,1,.533,0Z" transform="translate(-0.006 0)" fill="#fff"/>
    </g>
  </g>
</svg>
