<svg xmlns="http://www.w3.org/2000/svg" width="22" height="21" viewBox="0 0 22 21"><g><g><g><g><g><path fill="#282a2d" d="M18.54 10.523c-.446 0-.807.335-.807.749v7.482c0 .414-.36.749-.806.749H2.418c-.445 0-.806-.335-.806-.749V3.79c0-.414.361-.749.806-.749h9.673c.445 0 .806-.335.806-.748s-.361-.748-.806-.748H2.418C1.083 1.544 0 2.549 0 3.789v14.965C0 19.994 1.083 21 2.418 21h14.509c1.335 0 2.418-1.005 2.418-2.245v-7.482c0-.414-.36-.749-.806-.749z"/></g></g></g><g><g><g><path fill="#282a2d" d="M21.161.886a2.864 2.864 0 0 0-4.051 0l-9.857 9.856a.756.756 0 0 0-.18.293l-1.497 4.49a.748.748 0 0 0 .946.946l4.49-1.496a.749.749 0 0 0 .292-.181l9.857-9.857a2.865 2.865 0 0 0 0-4.05z"/></g></g></g></g></g></svg>
