<svg xmlns="http://www.w3.org/2000/svg" width="22" height="22" viewBox="0 0 22 22"><g><g><g><g><g><path fill="#282a2d" d="M8.25 2.75a2.75 2.75 0 1 1 5.5 0 2.75 2.75 0 0 1-5.5 0z"/></g></g></g><g><g><g><path fill="#282a2d" d="M15.12 12.974l-.625-4.862a1.37 1.37 0 0 0-1.366-1.237h-.754a.692.692 0 0 0-.487.2L11 7.965l-.888-.888a.692.692 0 0 0-.487-.201h-.752c-.71 0-1.298.532-1.367 1.22l-.625 4.88a.686.686 0 0 0 .682.775h.742l.575 7.012A1.37 1.37 0 0 0 10.248 22h1.506c.71 0 1.298-.534 1.37-1.25l.573-7h.74a.686.686 0 0 0 .683-.776z"/></g></g></g><g><g><g><path fill="#282a2d" d="M15.125 2.75a2.75 2.75 0 1 1 5.5 0 2.75 2.75 0 0 1-5.5 0z"/></g></g></g><g><g><g><path fill="#282a2d" d="M4.125 0a2.753 2.753 0 0 0-2.75 2.75 2.753 2.753 0 0 0 2.75 2.75 2.754 2.754 0 0 0 2.75-2.75A2.754 2.754 0 0 0 4.125 0z"/></g></g></g><g><g><g><path fill="#282a2d" d="M21.994 12.974l-.624-4.86a1.369 1.369 0 0 0-1.366-1.239h-.754a.693.693 0 0 0-.487.2l-.888.889-.888-.888a.692.692 0 0 0-.486-.201h-.753c-.085 0-.162.03-.243.045.177.314.316.653.357 1.034l.623 4.846a2.057 2.057 0 0 1-.503 1.63 1.993 1.993 0 0 1-.682.484l.456 4.473a1.37 1.37 0 0 0 1.368 1.238h1.506c.71 0 1.298-.534 1.37-1.25l.571-5.625h.741a.686.686 0 0 0 .682-.776z"/></g></g></g><g><g><g><path fill="#282a2d" d="M6.015 14.424a2.06 2.06 0 0 1-.498-1.622l.625-4.882c.036-.366.17-.696.343-1.001-.077-.014-.15-.044-.231-.044H5.5a.692.692 0 0 0-.486.2l-.889.889-.888-.888a.692.692 0 0 0-.485-.201h-.754c-.71 0-1.298.532-1.366 1.22l-.626 4.88a.686.686 0 0 0 .682.775h.742l.575 5.637a1.37 1.37 0 0 0 1.368 1.238H4.88c.71 0 1.298-.534 1.37-1.25l.456-4.462a2.062 2.062 0 0 1-.69-.49z"/></g></g></g></g></g></svg>
