<svg xmlns="http://www.w3.org/2000/svg" width="22" height="24" viewBox="0 0 22 24"><g><g><g><path fill="#fff" d="M10 24a3.756 3.756 0 0 0 3.675-3H6.327A3.756 3.756 0 0 0 10 24z"/></g><g><path fill="#fff" d="M17.013 11.999H17c-3.858 0-7-3.14-7-7 0-1.06.245-2.063.67-2.965A7 7 0 0 0 3 9v2.788A6.705 6.705 0 0 1 .613 16.92a1.75 1.75 0 0 0-.55 1.796C.275 19.5 1.049 20 1.86 20h16.275c.851 0 1.655-.552 1.827-1.387a1.753 1.753 0 0 0-.597-1.712c-1.454-1.22-2.294-3.01-2.353-4.902z"/></g><g><path fill="#e45b60" d="M22 5a5 5 0 1 1-9.999 0 5 5 0 0 1 10 0z"/></g></g></g></svg>
