<svg id="eye" xmlns="http://www.w3.org/2000/svg" width="14.578" height="13.364"><path id="Path_15150" data-name="Path 15150" d="M35.117 7.923a2 2 0 000-1.522 7.675 7.675 0 00-7.139-4.706 7.826 7.826 0 00-3.692.917L22.333.658a.607.607 0 00-.859.859l7.73 7.73 2.463 2.463 1.955 1.955a.607.607 0 10.859-.858l-1.77-1.77a7.53 7.53 0 002.406-3.114zm-8.369-2.85a2.385 2.385 0 011.23-.341 2.432 2.432 0 012.43 2.43 2.386 2.386 0 01-.341 1.23zm0 0" transform="translate(-20.689 -.479)" fill="#d1d8de"/><path id="Path_15151" data-name="Path 15151" d="M7.288 125.7a2.432 2.432 0 01-2.43-2.43 2.359 2.359 0 01.026-.256l-3.023-3.023a7.542 7.542 0 00-1.712 2.519 2 2 0 000 1.522 7.674 7.674 0 007.138 4.706 7.879 7.879 0 002.806-.513l-2.55-2.55a2.356 2.356 0 01-.255.025zm0 0" transform="translate(.001 -116.589)" fill="#d1d8de"/></svg>