<svg xmlns="http://www.w3.org/2000/svg" width="22.201" height="24.607"><path id="_104089" data-name="104089" d="M31.834 9.955L15.042.357A2.705 2.705 0 0011 2.7v19.2a2.7 2.7 0 004.047 2.348l16.792-9.6a2.705 2.705 0 000-4.7zm-7.276-2.27L22.252 10.9l-5.515-7.685zM13.594 22.957a1.055 1.055 0 01-.428-.135 1.068 1.068 0 01-.53-.921V2.7a1.06 1.06 0 01.957-1.057L21.242 12.3zm3.143-1.565l5.515-7.682 2.306 3.211zm14.283-8.165L25.989 16.1l-2.728-3.8 2.728-3.8 5.03 2.875a1.064 1.064 0 010 1.848z" transform="translate(-10.995)"/></svg>