<svg id="Group_20455" data-name="Group 20455" xmlns="http://www.w3.org/2000/svg" width="28.761" height="18.29"><g id="Group_20453" data-name="Group 20453" transform="translate(22.433)"><g id="Group_20375" data-name="Group 20375" transform="rotate(24 1.27 5.976)"><path id="Path_16613" data-name="Path 16613" d="M1.852.079A.758.758 0 00.837.418L.08 1.931a.757.757 0 001.354.677l.756-1.513A.757.757 0 001.852.079z" fill="#54a1c9"/></g><g id="Group_20451" data-name="Group 20451" transform="rotate(-14 57.462 7.055)"><path id="Path_16613-2" data-name="Path 16613" d="M1.852 2.947a.758.758 0 01-1.015-.339L.08 1.1A.757.757 0 011.434.418l.756 1.514a.757.757 0 01-.338 1.015z" fill="#54a1c9"/></g><g id="Group_20452" data-name="Group 20452" transform="rotate(-62.03 9.292 2.654)"><path id="Path_16613-3" data-name="Path 16613" d="M1.852 2.947a.758.758 0 01-1.015-.339L.08 1.1A.757.757 0 011.434.418l.756 1.513a.757.757 0 01-.338 1.016z" fill="#54a1c9"/></g></g><g id="Group_20454" data-name="Group 20454"><g id="Group_20375-2" data-name="Group 20375" transform="rotate(156 2.213 1.914)"><path id="Path_16613-4" data-name="Path 16613" d="M1.852 2.947a.758.758 0 01-1.015-.339L.08 1.1A.757.757 0 011.434.418l.756 1.513a.757.757 0 01-.338 1.016z" fill="#54a1c9"/></g><g id="Group_20451-2" data-name="Group 20451" transform="rotate(-166 3.844 8.18)"><path id="Path_16613-5" data-name="Path 16613" d="M1.852.079A.758.758 0 00.837.418L.08 1.931a.757.757 0 001.354.677l.756-1.513A.757.757 0 001.852.079z" fill="#54a1c9"/></g><g id="Group_20452-2" data-name="Group 20452" transform="rotate(-117.97 3.85 5.198)"><path id="Path_16613-6" data-name="Path 16613" d="M1.852.079A.758.758 0 00.837.418L.08 1.931a.757.757 0 001.354.677l.756-1.513A.757.757 0 001.852.079z" fill="#54a1c9"/></g></g><path id="heart" d="M16.2 1.532A4.731 4.731 0 0012.678 0a4.426 4.426 0 00-2.764.954A5.655 5.655 0 008.8 2.121 5.652 5.652 0 007.679.954 4.425 4.425 0 004.914 0 4.731 4.731 0 001.4 1.532 5.5 5.5 0 000 5.287a6.548 6.548 0 001.745 4.286 37.205 37.205 0 004.368 4.1c.605.516 1.291 1.1 2 1.723a1.033 1.033 0 001.36 0c.712-.623 1.4-1.208 2-1.724a37.188 37.188 0 004.368-4.1 6.547 6.547 0 001.745-4.286A5.5 5.5 0 0016.2 1.532zm0 0" transform="translate(5.4 2.638)" fill="#54a1c9"/></svg>