<svg id="Group_20389" data-name="Group 20389" xmlns="http://www.w3.org/2000/svg" width="15.178" height="14.166"><g id="Group_20380" data-name="Group 20380" transform="translate(0 5.059)"><g id="Group_20379" data-name="Group 20379"><path id="Path_16615" data-name="Path 16615" d="M33.086 241.468h-2.024a.506.506 0 00-.506.506v8.095a.506.506 0 00.506.506h2.024a.506.506 0 00.506-.506v-8.095a.506.506 0 00-.506-.506z" transform="translate(-30.556 -241.468)" fill="#d1d8de"/></g></g><g id="Group_20382" data-name="Group 20382" transform="translate(4.047)"><g id="Group_20381" data-name="Group 20381"><path id="Path_16616" data-name="Path 16616" d="M161.914 97.572a1.591 1.591 0 00-1.612-1.341h-3.944a8.735 8.735 0 00.507-2.991 2.107 2.107 0 00-2.112-2.068h-.417a.506.506 0 00-.506.506 7.063 7.063 0 01-1.315 4.141 5.6 5.6 0 01-1.721 1.112v7.591a11.819 11.819 0 004.173.816h3.31a1.538 1.538 0 001.517-2.077 1.518 1.518 0 001.012-2.024 1.519 1.519 0 00.731-2.476 1.515 1.515 0 00.377-1.189z" transform="translate(-150.794 -91.172)" fill="#d1d8de"/></g></g></svg>