<svg xmlns="http://www.w3.org/2000/svg" width="24.884" height="24.883"><path id="linkedin" d="M6.53 3.765A2.61 2.61 0 013.765 6.53 2.659 2.659 0 011 3.9 2.8 2.8 0 013.765 1 2.688 2.688 0 016.53 3.765zM1 25.883h5.53V7.912H1zM19.8 8.189a6.054 6.054 0 00-5.253 2.765h-.138L14.133 8.6H9.156c0 1.521.138 3.318.138 5.391v11.892h5.53v-9.815a4.262 4.262 0 01.138-1.382c.415-.968 1.106-2.212 2.627-2.212 1.935 0 2.765 1.659 2.765 3.871v9.539h5.53v-10.23c0-5.115-2.627-7.465-6.084-7.465z" transform="translate(-1 -1)" fill="#333"/></svg>