<svg id="pencil" xmlns="http://www.w3.org/2000/svg" width="17.758" height="17.758"><g id="Group_20531" data-name="Group 20531"><g id="Group_20530" data-name="Group 20530" fill="#282a2d"><path id="Path_16682" data-name="Path 16682" d="M13.162 81.519a.415.415 0 00-.571 0L4.915 89.2a.4.4 0 00.1.647l.63.316v1.061l-1.931.552-1.944-1.948.552-1.928h1.06l.315.631a.4.4 0 00.3.218.4.4 0 00.35-.113l7.676-7.683a.4.4 0 000-.571l-1.484-1.486a.4.4 0 00-.285-.118.4.4 0 00-.286.12l-8.237 8.309s0 .01-.008.014a.4.4 0 00-.094.159l-.7 2.454-.914 3.2a.4.4 0 00.385.516.41.41 0 00.111-.015l3.2-.914 2.452-.7c.007 0 .012-.008.02-.01a.747.747 0 00.137-.08c.005 0 .012-.006.017-.011l8.307-8.24a.4.4 0 000-.572z" transform="translate(0 -75.793)"/><path id="Path_16683" data-name="Path 16683" d="M296.605 2.884L294.184.46a1.651 1.651 0 00-2.284 0l-1.478 1.493a.4.4 0 000 .57l4.12 4.124a.4.4 0 00.57 0l1.493-1.481a1.616 1.616 0 000-2.285z" transform="translate(-279.32 -.002)"/></g></g></svg>