<svg xmlns="http://www.w3.org/2000/svg" width="15.995" height="15.996"><g id="toy" transform="translate(-.006)"><g id="Group_20569" data-name="Group 20569" transform="translate(.006)"><path id="Path_16684" data-name="Path 16684" d="M15.319 2.133A.684.684 0 0016 1.451V1.2a.27.27 0 00-.107-.213A4.932 4.932 0 008 4.932q0 .2.016.4H2.139a1.066 1.066 0 100 2.133h.7a3.188 3.188 0 00-.429 1.6v2.351a6.18 6.18 0 01-.794-1.738.807.807 0 00-.789-.578.809.809 0 00-.821.794.721.721 0 00.029.205A7.892 7.892 0 002.5 13.953a8.261 8.261 0 001.85 1.216 8.507 8.507 0 007.315 0c.16-.077.317-.16.472-.245a7.794 7.794 0 001.1-.741 7.9 7.9 0 002.735-4.083.761.761 0 00-.131-.674.837.837 0 00-.661-.326.822.822 0 00-.586.24.788.788 0 00-.2.341 6.3 6.3 0 01-1.061 2.111V9.064c0-.069 0-.141-.008-.211a.261.261 0 000-.112l-.025-.133V8.6a.122.122 0 000-.013l-.035-.181c-.011-.043-.013-.085-.027-.128v-.003l-.588-2.922a.355.355 0 01-.008-.075.382.382 0 01.291-.371.386.386 0 01.421.171l.336.562a1.013 1.013 0 001.861-.722l-.494-2.468a.25.25 0 01.056-.219.259.259 0 01.206-.098zM4.8 5.865H8v1.6a.267.267 0 01-.267.267H5.071a.267.267 0 01-.271-.267v-1.6zM8 14.4a6.7 6.7 0 01-3.991-1.3 3.865 3.865 0 017.723.184A6.743 6.743 0 018 14.4zm6.135-11.467a.267.267 0 11-.533 0v-.267a.267.267 0 11.533 0z" transform="translate(-.006)" fill="#fff"/></g></g></svg>