<svg xmlns="http://www.w3.org/2000/svg" width="27.354" height="22.236"><path id="twitter-with-circle" d="M30.188 11.937c.012.243.015.487.015.724 0 7.421-5.643 15.973-15.967 15.973a15.838 15.838 0 01-8.6-2.523 11.038 11.038 0 001.339.074 11.241 11.241 0 006.97-2.4A5.624 5.624 0 018.7 19.889a5.846 5.846 0 001.054.1 5.639 5.639 0 001.478-.2 5.618 5.618 0 01-4.5-5.5v-.069a5.628 5.628 0 002.544.7 5.625 5.625 0 01-1.737-7.5A15.958 15.958 0 0019.1 13.294a5.533 5.533 0 01-.145-1.282 5.614 5.614 0 019.71-3.838 11.272 11.272 0 003.565-1.363 5.639 5.639 0 01-2.467 3.108 11.275 11.275 0 003.224-.888 11.38 11.38 0 01-2.799 2.906z" transform="translate(-5.633 -6.398)" fill="#333"/></svg>