<svg xmlns="http://www.w3.org/2000/svg" width="22" height="22"><path fill="#282a2d" d="M8.25 2.75a2.75 2.75 0 115.5 0 2.75 2.75 0 01-5.5 0zm6.87 10.224l-.625-4.862a1.37 1.37 0 00-1.366-1.237h-.754a.692.692 0 00-.487.2l-.888.89-.888-.888a.692.692 0 00-.487-.201h-.752c-.71 0-1.298.532-1.367 1.22l-.625 4.88a.686.686 0 00.682.775h.742l.575 7.012A1.37 1.37 0 0010.248 22h1.506c.71 0 1.298-.534 1.37-1.25l.573-7h.74a.686.686 0 00.683-.776zm.005-10.224a2.75 2.75 0 115.5 0 2.75 2.75 0 01-5.5 0zM4.125 0a2.753 2.753 0 00-2.75 2.75 2.753 2.753 0 002.75 2.75 2.754 2.754 0 002.75-2.75A2.754 2.754 0 004.125 0zm17.869 12.974l-.624-4.86a1.369 1.369 0 00-1.366-1.239h-.754a.693.693 0 00-.487.2l-.888.889-.888-.888a.692.692 0 00-.486-.201h-.753c-.085 0-.162.03-.243.045.177.314.316.653.357 1.034l.623 4.846a2.057 2.057 0 01-.503 1.63 1.993 1.993 0 01-.682.484l.456 4.473a1.37 1.37 0 001.368 1.238h1.506c.71 0 1.298-.534 1.37-1.25l.571-5.625h.741a.686.686 0 00.682-.776zm-15.979 1.45a2.06 2.06 0 01-.498-1.622l.625-4.882c.036-.366.17-.696.343-1.001-.077-.014-.15-.044-.231-.044H5.5a.692.692 0 00-.486.2l-.889.889-.888-.888a.692.692 0 00-.485-.201h-.754c-.71 0-1.298.532-1.366 1.22l-.626 4.88a.686.686 0 00.682.775h.742l.575 5.637a1.37 1.37 0 001.368 1.238H4.88c.71 0 1.298-.534 1.37-1.25l.456-4.462a2.062 2.062 0 01-.69-.49z"/></svg>