<svg xmlns="http://www.w3.org/2000/svg" width="151" height="37"><g opacity="-1"><path fill="#e1393f" d="M62.896 1.212a2.878 2.878 0 00-2.14-.932c-.619 0-1.185.195-1.683.58a3.487 3.487 0 00-.68.71 3.44 3.44 0 00-.68-.71 2.693 2.693 0 00-1.682-.58c-.826 0-1.587.33-2.14.932-.548.594-.85 1.405-.85 2.285 0 .905.337 1.734 1.062 2.608.648.782 1.579 1.575 2.657 2.494.369.314.786.67 1.22 1.049a.628.628 0 00.827 0c.433-.379.851-.735 1.22-1.049 1.078-.919 2.009-1.712 2.657-2.494.724-.874 1.062-1.703 1.062-2.608 0-.88-.302-1.691-.85-2.285zM107 31.5a3.5 3.5 0 117 0 3.5 3.5 0 01-7 0z" opacity="-1"/><path fill="#333" d="M88.457 24.485c0 1.66.541 2.888 1.625 3.682.953.65 2.447.975 4.484.975h.585V19.61c-.477-.057-1.17-.094-2.08-.108-1.53 0-2.73.549-3.596 1.646-.679.896-1.018 2.008-1.018 3.337zm-8.124.13c0-3.25.874-5.915 2.621-7.994 2.123-2.6 5.344-3.9 9.662-3.9 1.011 0 1.856.058 2.535.174V5.898c0-1.07.375-1.979 1.126-2.73.751-.75 1.683-1.126 2.795-1.126 1.112 0 2.05.375 2.816 1.126.765.751 1.148 1.66 1.148 2.73v25.54c0 1.358-.426 2.409-1.278 3.152-.852.744-1.914 1.116-3.185 1.116h-4.895c-4.059 0-7.25-.917-9.575-2.751-2.513-1.979-3.77-4.759-3.77-8.34zm-12.5 7.755V5.94c0-1.068.394-1.978 1.181-2.729.787-.75 1.708-1.126 2.762-1.126 1.127 0 2.07.375 2.827 1.126a3.702 3.702 0 011.138 2.73V32.37c0 1.04-.394 1.939-1.181 2.697s-1.711 1.137-2.773 1.137c-1.061 0-1.986-.379-2.773-1.137-.787-.758-1.18-1.657-1.18-2.697zm-13.82 0V16.577c0-1.04.386-1.935 1.159-2.686.772-.75 1.71-1.126 2.816-1.126 1.105 0 2.036.379 2.794 1.137s1.138 1.65 1.138 2.675V32.37c0 1.04-.394 1.939-1.181 2.697s-1.715 1.137-2.784 1.137c-1.097 0-2.029-.379-2.794-1.137-.766-.758-1.148-1.657-1.148-2.697zm-28.66 0V5.94c0-1.068.393-1.978 1.18-2.729.787-.75 1.708-1.126 2.762-1.126 1.126 0 2.069.375 2.827 1.126.758.751 1.137 1.661 1.137 2.73v8.903a8.632 8.632 0 012.427-1.408c1.126-.447 2.34-.671 3.639-.671 2.787 0 4.99.758 6.607 2.274 1.69 1.603 2.535 3.893 2.535 6.868V32.37c0 1.04-.383 1.939-1.148 2.697-.766.758-1.697 1.137-2.795 1.137-1.097 0-2.029-.379-2.794-1.137-.766-.758-1.149-1.657-1.149-2.697v-8.774c0-1.66-.252-2.816-.758-3.466-.534-.62-1.292-.931-2.274-.931-1.531 0-2.65.606-3.358 1.82-.621 1.01-.932 2.325-.932 3.942v7.409c0 1.04-.393 1.939-1.18 2.697-.787.758-1.712 1.137-2.773 1.137-1.062 0-1.986-.379-2.773-1.137-.787-.758-1.18-1.657-1.18-2.697zM.44 24.44c0-2.816.794-5.199 2.383-7.149 2.426-3.018 5.95-4.527 10.571-4.527 1.863 0 3.56.34 5.091 1.018 2.008.88 3.018 2.108 3.033 3.683 0 .852-.318 1.592-.953 2.22a3.15 3.15 0 01-2.297.942c-.39 0-1.191-.209-2.404-.628-.953-.39-1.762-.585-2.426-.585-1.473 0-2.658.448-3.553 1.343-.91.983-1.365 2.21-1.365 3.683 0 1.574.426 2.83 1.278 3.77.852.982 2.065 1.465 3.64 1.451.765 0 1.624-.144 2.578-.433.173-.058.43-.163.769-.314.339-.152.62-.257.844-.315.224-.057.495-.086.813-.086a3 3 0 012.242.953c.614.635.92 1.4.92 2.296 0 1.69-1.335 2.96-4.007 3.813-1.387.419-2.86.628-4.42.628-4.289 0-7.574-1.249-9.856-3.748C1.401 30.391.44 27.72.44 24.441z" opacity="-1"/><path fill="#e1393f" d="M141.049 25.66c.121-.598.34-1.085.654-1.46.386-.416.964-.624 1.735-.624.771 0 1.345.228 1.72.685.314.355.502.821.563 1.4h-4.672zm-5.83 1.69c0 2.659.822 4.744 2.466 6.256 1.512 1.46 3.597 2.191 6.255 2.191 1.685 0 3.1-.208 4.247-.624 1.512-.548 2.268-1.36 2.268-2.435 0-.629-.198-1.152-.594-1.568a1.937 1.937 0 00-1.461-.624c-.203 0-.409.033-.617.1a17.851 17.851 0 00-1.438.556 6.181 6.181 0 01-2.024.319c-.984 0-1.766-.27-2.344-.807-.457-.416-.766-.99-.928-1.72h7.381c.853 0 1.512-.244 1.979-.73.467-.488.7-1.167.7-2.04 0-1.897-.665-3.51-1.994-4.84-1.37-1.37-3.272-2.055-5.707-2.055-2.395 0-4.328.705-5.8 2.116-1.592 1.613-2.389 3.582-2.389 5.905zm-12.77-2.13c.61-.772 1.452-1.157 2.527-1.157.64.01 1.126.035 1.461.076v6.697h-.41c-1.431 0-2.482-.229-3.151-.685-.761-.558-1.142-1.42-1.142-2.588 0-.933.239-1.714.716-2.344zm-6.422 2.435c0 2.516.882 4.47 2.648 5.86 1.634 1.288 3.876 1.932 6.727 1.932h3.44c.893 0 1.639-.261 2.237-.784.599-.522.898-1.26.898-2.214V14.504c0-.75-.269-1.39-.806-1.917-.538-.528-1.198-.792-1.979-.792-.781 0-1.436.264-1.963.792a2.612 2.612 0 00-.792 1.917v4.917c-.477-.082-1.07-.122-1.78-.122-3.034 0-5.297.913-6.789 2.74-1.227 1.46-1.841 3.333-1.841 5.616z"/><path fill="none" stroke="#000" stroke-miterlimit="20" d="M141.049 25.66c.121-.598.34-1.085.654-1.46.386-.416.964-.624 1.735-.624.771 0 1.345.228 1.72.685.314.355.502.821.563 1.4h-4.672zm-5.83 1.69c0 2.659.822 4.744 2.466 6.256 1.512 1.46 3.597 2.191 6.255 2.191 1.685 0 3.1-.208 4.247-.624 1.512-.548 2.268-1.36 2.268-2.435 0-.629-.198-1.152-.594-1.568a1.937 1.937 0 00-1.461-.624c-.203 0-.409.033-.617.1a17.851 17.851 0 00-1.438.556 6.181 6.181 0 01-2.024.319c-.984 0-1.766-.27-2.344-.807-.457-.416-.766-.99-.928-1.72h7.381c.853 0 1.512-.244 1.979-.73.467-.488.7-1.167.7-2.04 0-1.897-.665-3.51-1.994-4.84-1.37-1.37-3.272-2.055-5.707-2.055-2.395 0-4.328.705-5.8 2.116-1.592 1.613-2.389 3.582-2.389 5.905zm-12.77-2.13c.61-.772 1.452-1.157 2.527-1.157.64.01 1.126.035 1.461.076v6.697h-.41c-1.431 0-2.482-.229-3.151-.685-.761-.558-1.142-1.42-1.142-2.588 0-.933.239-1.714.716-2.344zm-6.422 2.435c0 2.516.882 4.47 2.648 5.86 1.634 1.288 3.876 1.932 6.727 1.932h3.44c.893 0 1.639-.261 2.237-.784.599-.522.898-1.26.898-2.214V14.504c0-.75-.269-1.39-.806-1.917-.538-.528-1.198-.792-1.979-.792-.781 0-1.436.264-1.963.792a2.612 2.612 0 00-.792 1.917v4.917c-.477-.082-1.07-.122-1.78-.122-3.034 0-5.297.913-6.789 2.74-1.227 1.46-1.841 3.333-1.841 5.616z"/></g></svg>