<svg xmlns="http://www.w3.org/2000/svg" width="18" height="17.79"><path d="M16.9 9.697a2.055 2.055 0 00-.679-3.852 1 1 0 01-.79-1.367 2.055 2.055 0 00-3-2.514 1 1 0 01-1.484-.54 2.055 2.055 0 00-3.911 0 1 1 0 01-1.484.54 2.055 2.055 0 00-3 2.514 1 1 0 01-.79 1.367A2.055 2.055 0 001.1 9.697a1 1 0 01.274 1.555 2.055 2.055 0 001.956 3.387 1 1 0 011.21 1.015 2.024 2.024 0 001.351 2.007 2.1 2.1 0 00.72.129 2.023 2.023 0 001.6-.8 1 1 0 011.579 0 2.055 2.055 0 003.675-1.338 1 1 0 011.21-1.015 2.055 2.055 0 001.956-3.387 1 1 0 01.274-1.555zM9 14.27a5.375 5.375 0 115.375-5.375A5.381 5.381 0 019 14.27z" fill="#333"/><path d="M8.999 4.223a4.672 4.672 0 104.672 4.672 4.677 4.677 0 00-4.672-4.672zm2.215 5.3l-1.847 1.968a.505.505 0 01-.737 0L6.783 9.523a1.746 1.746 0 012.215-2.666 1.746 1.746 0 012.215 2.666z" fill="#333"/></svg>